<svg width="891" height="432" viewBox="0 0 891 432" fill="none" xmlns="http://www.w3.org/2000/svg">
<path d="M889.858 1.699H186.282V389.239H889.858V1.699Z" fill="#E6E6E6"/>
<path d="M502.497 53.74H248.497V278.213H502.497V53.74Z" fill="white"/>
<path d="M851.497 58.093H597.497V330.729H851.497V58.093Z" fill="white"/>
<path d="M393.209 417.541C418.338 417.541 438.709 415.038 438.709 411.951C438.709 408.864 418.338 406.361 393.209 406.361C368.08 406.361 347.709 408.864 347.709 411.951C347.709 415.038 368.08 417.541 393.209 417.541Z" fill="#E6E6E6"/>
<path d="M107.735 410.661C165.407 410.661 212.16 408.736 212.16 406.361C212.16 403.986 165.407 402.061 107.735 402.061C50.0627 402.061 3.31 403.986 3.31 406.361C3.31 408.736 50.0627 410.661 107.735 410.661Z" fill="#E6E6E6"/>
<path d="M889.558 1.356H185.982V27.063H889.558V1.356Z" fill="#6615BF"/>
<path d="M208.194 19.2641C211.254 19.2641 213.734 17.1309 213.734 14.4994C213.734 11.868 211.254 9.73474 208.194 9.73474C205.134 9.73474 202.654 11.868 202.654 14.4994C202.654 17.1309 205.134 19.2641 208.194 19.2641Z" fill="#E6E6E6"/>
<path d="M229.222 19.2641C232.282 19.2641 234.762 17.1309 234.762 14.4994C234.762 11.868 232.282 9.73474 229.222 9.73474C226.162 9.73474 223.682 11.868 223.682 14.4994C223.682 17.1309 226.162 19.2641 229.222 19.2641Z" fill="#E6E6E6"/>
<path d="M250.25 19.2641C253.309 19.2641 255.79 17.1309 255.79 14.4994C255.79 11.868 253.309 9.73474 250.25 9.73474C247.19 9.73474 244.71 11.868 244.71 14.4994C244.71 17.1309 247.19 19.2641 250.25 19.2641Z" fill="#E6E6E6"/>
<path d="M795.497 131.223H793.958V94.972C793.958 83.383 783.036 73.99 769.562 73.99H680.261C666.787 73.99 655.865 83.383 655.865 94.972V293.851C655.865 305.438 666.787 314.832 680.261 314.832H769.562C783.036 314.832 793.958 305.438 793.958 293.851V157.028H795.497V131.223Z" fill="#3F3D56"/>
<path d="M769.547 79.449H757.89C760.212 84.345 756.024 89.704 749.876 89.704H698.716C692.568 89.704 688.38 84.345 690.702 79.449H679.815C669.753 79.449 661.597 86.463 661.597 95.117V293.705C661.597 302.358 669.753 309.374 679.815 309.374H769.547C779.608 309.374 787.765 302.358 787.765 293.705V95.117C787.765 86.463 779.608 79.449 769.547 79.449Z" fill="white"/>
<path d="M463.944 195.535H287.4V202.461H463.944V195.535Z" fill="#E6E6E6"/>
<path d="M463.944 217.896H287.4V224.822H463.944V217.896Z" fill="#6615BF"/>
<path d="M463.944 240.258H287.4V247.184H463.944V240.258Z" fill="#E6E6E6"/>
<path d="M777.213 210.646H674.149V217.572H777.213V210.646Z" fill="#E6E6E6"/>
<path d="M777.213 232.147H674.149V239.073H777.213V232.147Z" fill="#E6E6E6"/>
<path d="M777.213 253.649H674.149V260.575H777.213V253.649Z" fill="#E6E6E6"/>
<path d="M787.989 361.194V346.421H770.812V361.194H787.989Z" fill="#3F3D56"/>
<path d="M760.314 361.193V346.42H743.137V361.193H760.314Z" fill="#6615BF"/>
<path d="M732.64 361.194V346.421H715.463V361.194H732.64Z" fill="#3F3D56"/>
<path d="M704.965 361.193V346.42H687.788V361.193H704.965Z" fill="#3F3D56"/>
<path d="M677.291 361.194V346.421H660.114V361.194H677.291Z" fill="#3F3D56"/>
<path d="M352.915 238.38L352.174 239.656L349.95 230.094C349.95 230.094 346.986 219.895 352.915 219.895C358.844 219.895 357.362 230.094 357.362 230.094V237.105L352.915 238.38Z" fill="#FFB8B8"/>
<path d="M450.156 237.075L450.897 238.35L453.121 228.789C453.121 228.789 456.085 218.59 450.156 218.59C444.227 218.59 445.709 228.789 445.709 228.789V235.8L450.156 237.075Z" fill="#FFB8B8"/>
<path d="M385.525 310.063L376.632 357.231L381.078 403.125L391.454 399.301L389.972 364.88L400.348 337.471L402.571 369.979L398.125 403.762L411.465 405.037L421.1 335.559L420.359 311.975L385.525 310.063Z" fill="#2F2E41"/>
<path d="M385.525 397.389L380.337 404.4V420.067C380.337 420.999 381.123 421.794 382.193 421.943C384.736 422.301 389.164 422.556 390.713 420.335C392.936 417.149 391.454 410.137 391.454 410.137C391.454 410.137 394.418 405.037 392.936 401.213C391.454 397.389 389.972 396.751 389.972 396.751L385.525 397.389Z" fill="#2F2E41"/>
<path d="M407.759 403.763L409.241 405.675C409.241 405.675 411.465 407.587 409.982 408.862C408.894 409.853 407.903 410.918 407.018 412.049C407.018 412.049 398.865 413.961 398.865 411.412V403.125L407.759 403.763Z" fill="#2F2E41"/>
<path d="M405.088 258.185C410.513 258.185 414.912 254.402 414.912 249.735C414.912 245.069 410.513 241.286 405.088 241.286C399.662 241.286 395.264 245.069 395.264 249.735C395.264 254.402 399.662 258.185 405.088 258.185Z" fill="#FFB8B8"/>
<path d="M398.495 252.377L397.754 264.488L411.094 265.125L410.353 253.014L398.495 252.377Z" fill="#FFB8B8"/>
<path d="M412.947 265.444L410.843 261.024C410.843 261.024 401.089 257.795 398.124 260.982L396.642 264.807L384.784 262.257L378.113 275.005L384.043 311.337C384.043 311.337 399.606 328.548 420.358 311.976L426.287 277.555L421.84 264.169L412.947 265.444Z" fill="#575A89"/>
<path d="M420.359 266.719L421.841 264.169L436.664 256.519L445.71 233.49L452.71 236.07L444.816 263.531L423.323 280.741L420.359 266.719Z" fill="#575A89"/>
<path d="M386.266 263.531L384.784 262.257L369.22 253.97L358.103 234.848L349.21 237.397L358.844 260.981L382.561 277.555L386.266 263.531Z" fill="#575A89"/>
<path d="M412.379 236.796L413.986 236.105L411.576 235.415V234.723C411.576 234.723 399.529 230.579 397.923 237.486C393.666 242.406 393.666 249.144 397.923 254.064V256.137L410.773 257.518L412.379 253.373C412.379 253.373 420.411 240.94 412.379 236.796Z" fill="#2F2E41"/>
<path d="M118.399 310.811L115.544 312.039C115.544 312.039 104.122 316.542 107.454 318.997C110.785 321.453 119.827 316.542 119.827 316.542L121.731 314.495L118.399 310.811Z" fill="#FFB8B8"/>
<path d="M201.943 310.2L193.117 361.155L179.791 396.764L172.653 393.899L179.315 345.192L160.279 331.276L161.707 310.811L201.943 310.2Z" fill="#2F2E41"/>
<path d="M171.701 395.127C171.701 395.127 179.791 391.443 180.267 396.765L179.315 402.086C179.315 402.086 182.17 411.499 172.652 409.453C163.134 407.406 169.797 401.267 169.797 401.267L171.701 395.127Z" fill="#2F2E41"/>
<path d="M166.466 326.774L160.279 331.276C160.279 331.276 160.279 359.109 164.562 363.202C168.845 367.295 195.972 388.169 196.923 388.988C197.875 389.806 202.158 380.802 202.158 380.802L176.46 355.016L178.363 339.053L166.466 326.774Z" fill="#2F2E41"/>
<path d="M199.303 379.574C199.303 379.574 206.917 378.346 206.917 382.848C207.012 386.408 207.33 389.96 207.869 393.49C207.869 393.49 209.773 407.815 203.586 405.769C197.399 403.722 195.02 389.397 195.02 389.397C195.595 388.206 196.595 387.203 197.875 386.532C199.779 385.713 199.303 379.574 199.303 379.574Z" fill="#2F2E41"/>
<path d="M175.508 249.415L176.936 264.56L173.129 270.29L162.659 261.694L161.707 250.234L175.508 249.415Z" fill="#FFB8B8"/>
<path d="M166.941 254.328C173.249 254.328 178.363 249.93 178.363 244.505C178.363 239.079 173.249 234.681 166.941 234.681C160.633 234.681 155.519 239.079 155.519 244.505C155.519 249.93 160.633 254.328 166.941 254.328Z" fill="#FFB8B8"/>
<path d="M171.701 264.151L176.46 252.281L185.026 260.467L200.731 312.448L188.833 318.588L183.599 312.038L182.647 320.634L159.327 316.541L157.424 261.694L162.18 255.933L171.701 264.151Z" fill="#D0CDE1"/>
<path d="M165.038 322.271L162.183 255.965L155.996 260.058L144.574 266.606L152.189 289.937L154.568 314.495L165.038 322.271Z" fill="#2F2E41"/>
<path d="M147.906 267.015L144.574 266.606L135.056 290.755L116.02 311.22L123.159 317.769L145.05 299.35L153.141 284.206L147.906 267.015Z" fill="#2F2E41"/>
<path d="M199.878 311.186L199.229 313.874C199.229 313.874 196.258 324.373 200.563 323.647C204.869 322.921 205.991 313.774 205.991 313.774L205.304 311.22L199.878 311.186Z" fill="#FFB8B8"/>
<path d="M175.716 251.616L199.303 259.648L196.448 284.206L202.159 311.22L196.448 316.541L175.332 255.095L175.716 251.616Z" fill="#2F2E41"/>
<path d="M167.539 228.006L170.892 226.565V228.006L173.127 227.045V229.448C173.127 229.448 181.509 234.734 179.832 240.982C178.156 247.229 178.156 247.709 178.156 247.709C178.156 247.709 176.037 235.828 167.655 237.751C159.274 239.673 158.599 240.02 156.364 245.307L155.758 247.574C155.758 247.574 146.306 228.967 167.539 228.006Z" fill="#2F2E41"/>
<path d="M195.972 259.648H199.779L205.966 288.299V313.266L198.352 312.038L192.165 274.383L195.972 259.648Z" fill="#2F2E41"/>
<path d="M147.166 320.239H6.84503V404.103H147.166V320.239Z" fill="#6615BF"/>
<path d="M77.005 336.603C54.12 336.603 39.816 357.91 51.259 374.955C62.702 392.001 91.308 392.001 102.751 374.955C105.36 371.069 106.734 366.659 106.734 362.172C106.686 348.068 93.404 336.644 77.005 336.603ZM77.005 344.273C83.871 344.273 88.162 350.666 84.729 355.779C81.296 360.893 72.714 360.893 69.281 355.779C68.498 354.613 68.086 353.291 68.086 351.944C68.103 347.713 72.086 344.288 77.005 344.273ZM77.005 381.2C69.852 381.172 63.177 378.108 59.168 373.013C59.311 367.899 71.059 365.085 77.005 365.085C82.951 365.085 94.7 367.899 94.842 373.013C90.829 378.104 84.156 381.167 77.005 381.2Z" fill="white"/>
<path d="M287.994 78.7954L286.998 80.2877L462.998 167.153L463.994 165.661L287.994 78.7954Z" fill="white"/>
<path d="M463.002 78.8009L286.994 165.654L287.989 167.146L463.997 80.2925L463.002 78.8009Z" fill="white"/>
<path d="M697.204 120.214L695.79 121.43L752.79 170.453L754.204 169.237L697.204 120.214Z" fill="white"/>
<path d="M752.79 120.215L695.79 169.238L697.204 170.454L754.204 121.431L752.79 120.215Z" fill="white"/>
<path d="M745.444 150.475C743.766 149.93 741.924 149.458 739.959 149.062C740.6 147.152 741.127 145.305 741.497 143.573C742.84 137.259 742.159 133.111 739.526 131.578C738.866 131.192 738.108 130.998 737.271 130.998C736.034 130.998 734.628 131.439 733.108 132.262C732.545 131.814 731.849 131.567 731.131 131.565C729.341 131.565 727.891 133.028 727.891 134.833C727.891 135.236 727.972 135.618 728.105 135.976C726.858 137.12 725.582 138.443 724.296 139.921C719.463 134.365 714.746 130.999 711.321 130.999C710.485 130.999 709.727 131.194 709.067 131.578C706.434 133.112 705.752 137.262 707.096 143.573C707.466 145.306 707.993 147.153 708.633 149.063C706.668 149.458 704.826 149.93 703.149 150.475C697.058 152.458 693.838 155.128 693.838 158.196C693.838 160.302 695.356 162.22 698.277 163.858C698.215 164.109 698.173 164.368 698.173 164.64C698.173 166.444 699.625 167.908 701.415 167.908C702.621 167.908 703.661 167.235 704.218 166.247C705.599 166.655 707.077 167.015 708.633 167.328C707.992 169.237 707.466 171.084 707.096 172.817C705.753 179.132 706.435 183.279 709.068 184.814C709.727 185.197 710.485 185.392 711.321 185.392C714.746 185.392 719.463 182.027 724.296 176.469C729.131 182.027 733.848 185.394 737.271 185.394C738.108 185.394 738.865 185.197 739.524 184.815C741.53 183.646 742.401 180.959 742.11 176.958C743.274 176.425 744.02 175.263 744.019 173.984C744.025 172.274 742.701 170.851 740.993 170.736C740.685 169.589 740.342 168.452 739.959 167.33C741.925 166.934 743.767 166.462 745.444 165.916C751.535 163.934 754.754 161.264 754.754 158.196C754.754 155.128 751.535 152.458 745.444 150.475ZM729.309 137.538C729.83 137.895 730.456 138.106 731.131 138.106C732.922 138.106 734.373 136.641 734.373 134.836C734.373 134.507 734.31 134.196 734.221 133.897C735.397 133.28 736.432 132.962 737.272 132.962C737.771 132.962 738.19 133.064 738.556 133.278C740.308 134.3 740.697 137.994 739.597 143.163C739.226 144.907 738.688 146.773 738.029 148.705C735.451 148.276 732.85 147.976 730.241 147.811C728.793 145.608 727.235 143.48 725.572 141.435C726.744 140.066 727.991 138.765 729.309 137.538ZM731.693 162.506C730.883 163.919 730.037 165.312 729.154 166.681C725.918 166.859 722.676 166.859 719.439 166.681C718.557 165.312 717.712 163.919 716.902 162.506C716.094 161.086 715.324 159.646 714.592 158.186C716.056 155.277 717.675 152.447 719.439 149.71C722.676 149.533 725.918 149.533 729.154 149.71C730.918 152.447 732.537 155.277 734.003 158.186C733.272 159.646 732.501 161.087 731.693 162.506ZM735.068 160.382C735.904 162.159 736.667 163.969 737.358 165.806C735.437 166.12 733.503 166.356 731.564 166.517C732.177 165.533 732.782 164.523 733.376 163.486C733.96 162.462 734.523 161.426 735.068 160.382ZM727.809 168.706C726.703 170.328 725.53 171.906 724.296 173.436C723.063 171.906 721.892 170.328 720.784 168.706C721.943 168.751 723.113 168.775 724.296 168.775C725.48 168.775 726.651 168.751 727.809 168.706ZM717.031 166.516C715.09 166.356 713.157 166.12 711.236 165.805C711.885 164.075 712.647 162.259 713.526 160.381C714.071 161.426 714.636 162.461 715.22 163.485C715.812 164.523 716.418 165.532 717.029 166.516H717.031ZM713.532 156C712.697 154.226 711.931 152.419 711.237 150.585C713.157 150.271 715.09 150.034 717.029 149.876C716.417 150.859 715.812 151.869 715.217 152.906C714.636 153.927 714.074 154.959 713.532 156ZM720.784 147.686C721.892 146.062 723.063 144.485 724.296 142.956C725.53 144.485 726.703 146.062 727.809 147.686C726.651 147.641 725.48 147.616 724.296 147.616C723.113 147.616 721.943 147.641 720.784 147.686ZM733.376 152.906C732.791 151.885 732.187 150.873 731.564 149.874C733.503 150.033 735.436 150.27 737.357 150.584C736.662 152.418 735.898 154.225 735.063 155.999C734.523 154.969 733.966 153.938 733.376 152.906ZM708.997 143.163C707.896 137.994 708.287 134.299 710.04 133.277C710.405 133.063 710.825 132.96 711.321 132.96C713.887 132.96 718.222 135.876 723.021 141.433C721.454 143.353 719.886 145.49 718.354 147.809C715.634 147.988 713.018 148.29 710.566 148.704C709.908 146.773 709.368 144.906 708.997 143.163ZM704.621 164.31C704.455 162.66 703.092 161.368 701.414 161.368C700.609 161.368 699.881 161.677 699.314 162.168C697.04 160.91 695.782 159.529 695.782 158.196C695.782 155.494 700.928 152.591 709.287 150.937C710.207 153.407 711.25 155.829 712.412 158.196C711.25 160.561 710.207 162.984 709.287 165.455C707.715 165.148 706.157 164.766 704.621 164.31ZM711.321 183.431C710.825 183.431 710.405 183.328 710.038 183.114C707.721 181.764 707.802 175.816 710.563 167.686C713.017 168.1 715.633 168.404 718.355 168.583C719.803 170.784 721.36 172.913 723.022 174.959C718.221 180.515 713.886 183.431 711.321 183.431ZM739.098 171.199C738.129 171.792 737.538 172.847 737.538 173.982C737.538 175.573 738.665 176.897 740.157 177.189C740.365 180.269 739.817 182.377 738.553 183.114C738.187 183.328 737.769 183.431 737.271 183.431C734.706 183.431 730.372 180.515 725.571 174.959C727.233 172.913 728.792 170.784 730.241 168.583C732.85 168.415 735.451 168.115 738.03 167.686C738.444 168.908 738.802 170.084 739.097 171.2L739.098 171.199ZM739.305 165.454C738.386 162.984 737.342 160.561 736.18 158.196C737.342 155.829 738.386 153.407 739.305 150.937C747.664 152.591 752.811 155.494 752.811 158.196C752.811 160.898 747.664 163.801 739.305 165.455V165.454Z" fill="#6615BF" stroke="#6615BF"/>
<path d="M327.092 123.349C325.816 122.933 324.416 122.576 322.922 122.273C323.409 120.821 323.81 119.416 324.091 118.098C325.112 113.295 324.594 110.14 322.593 108.974C322.091 108.681 321.514 108.532 320.878 108.532C319.937 108.532 318.868 108.867 317.713 109.493C317.285 109.153 316.755 108.966 316.209 108.964C314.849 108.964 313.746 110.076 313.746 111.45C313.746 111.756 313.808 112.047 313.909 112.319C312.961 113.19 311.991 114.197 311.012 115.32C307.337 111.094 303.75 108.533 301.148 108.533C300.512 108.533 299.935 108.681 299.433 108.974C297.432 110.14 296.913 113.297 297.935 118.098C298.216 119.417 298.617 120.822 299.104 122.274C297.61 122.576 296.209 122.933 294.935 123.349C290.303 124.857 287.855 126.888 287.855 129.222C287.855 130.825 289.01 132.284 291.23 133.529C291.183 133.72 291.151 133.918 291.151 134.125C291.151 135.497 292.254 136.611 293.616 136.611C294.533 136.611 295.324 136.098 295.748 135.347C296.797 135.658 297.92 135.931 299.104 136.17C298.617 137.622 298.216 139.027 297.935 140.345C296.914 145.149 297.433 148.304 299.435 149.471C299.936 149.763 300.512 149.911 301.148 149.911C303.751 149.911 307.337 147.351 311.013 143.124C314.689 147.351 318.275 149.912 320.878 149.912C321.514 149.912 322.09 149.763 322.591 149.472C324.116 148.583 324.778 146.538 324.557 143.495C325.442 143.09 326.01 142.205 326.009 141.233C326.013 139.931 325.006 138.851 323.708 138.761C323.474 137.89 323.212 137.026 322.922 136.17C324.416 135.869 325.817 135.511 327.092 135.096C331.723 133.587 334.171 131.556 334.171 129.222C334.171 126.888 331.723 124.857 327.092 123.349ZM314.824 113.507C315.22 113.779 315.696 113.94 316.21 113.94C317.571 113.94 318.674 112.826 318.674 111.451C318.674 111.202 318.626 110.965 318.559 110.738C319.453 110.268 320.24 110.026 320.879 110.026C321.258 110.026 321.576 110.105 321.855 110.266C323.187 111.044 323.483 113.855 322.647 117.787C322.364 119.113 321.956 120.533 321.454 122.003C319.493 121.676 317.517 121.449 315.533 121.322C314.432 119.647 313.247 118.028 311.983 116.472C312.874 115.43 313.823 114.441 314.824 113.507ZM316.637 132.501C316.021 133.576 315.377 134.636 314.706 135.678C312.246 135.812 309.78 135.812 307.32 135.678C306.649 134.636 306.006 133.577 305.391 132.501C304.776 131.422 304.19 130.325 303.634 129.215C304.748 127.001 305.978 124.849 307.32 122.766C309.78 122.632 312.246 122.632 314.706 122.766C316.048 124.85 317.278 127.002 318.393 129.215C317.837 130.325 317.251 131.422 316.637 132.501ZM319.203 130.885C319.837 132.237 320.418 133.614 320.944 135.012C319.483 135.25 318.014 135.431 316.539 135.552C317.005 134.804 317.465 134.036 317.917 133.247C318.36 132.467 318.789 131.68 319.203 130.885ZM313.684 137.217C312.842 138.451 311.951 139.652 311.013 140.815C310.076 139.652 309.184 138.452 308.343 137.217C309.223 137.252 310.113 137.27 311.013 137.27C311.913 137.27 312.804 137.252 313.684 137.217ZM305.489 135.552C304.014 135.43 302.543 135.25 301.082 135.011C301.576 133.694 302.156 132.314 302.825 130.885C303.238 131.68 303.668 132.467 304.111 133.246C304.562 134.035 305.024 134.803 305.489 135.552ZM302.828 127.551C302.193 126.202 301.612 124.828 301.084 123.433C302.544 123.194 304.014 123.014 305.488 122.893C305.022 123.641 304.562 124.409 304.11 125.198C303.668 125.975 303.242 126.759 302.828 127.551ZM308.343 121.227C309.185 119.993 310.076 118.793 311.013 117.629C311.951 118.793 312.842 119.992 313.684 121.227C312.804 121.193 311.912 121.174 311.012 121.174C310.113 121.174 309.223 121.193 308.343 121.227ZM317.917 125.198C317.472 124.421 317.013 123.652 316.539 122.892C318.014 123.014 319.483 123.194 320.943 123.432C320.415 124.827 319.833 126.202 319.199 127.551C318.789 126.767 318.366 125.983 317.917 125.198ZM299.381 117.786C298.544 113.854 298.841 111.044 300.173 110.266C300.45 110.104 300.771 110.025 301.148 110.025C303.099 110.025 306.394 112.243 310.043 116.47C308.853 117.931 307.659 119.557 306.495 121.321C304.426 121.457 302.438 121.687 300.573 122.002C300.073 120.533 299.663 119.112 299.381 117.786ZM296.054 133.873C295.927 132.619 294.891 131.636 293.615 131.636C293.003 131.636 292.449 131.87 292.018 132.244C290.29 131.287 289.333 130.236 289.333 129.222C289.333 127.168 293.245 124.958 299.601 123.701C300.3 125.58 301.093 127.422 301.977 129.222C301.093 131.022 300.3 132.865 299.601 134.744C298.405 134.511 297.221 134.22 296.054 133.873ZM301.148 148.419C300.771 148.419 300.45 148.34 300.172 148.178C298.411 147.151 298.472 142.626 300.571 136.441C302.437 136.757 304.426 136.987 306.496 137.124C307.596 138.799 308.781 140.418 310.044 141.974C306.394 146.201 303.098 148.419 301.148 148.419ZM322.267 139.114C321.53 139.565 321.081 140.368 321.081 141.232C321.081 142.442 321.938 143.449 323.072 143.671C323.23 146.014 322.813 147.618 321.852 148.178C321.574 148.34 321.257 148.419 320.878 148.419C318.928 148.419 315.632 146.201 311.982 141.974C313.246 140.418 314.431 138.799 315.532 137.124C317.517 136.997 319.494 136.769 321.456 136.441C321.77 137.371 322.042 138.265 322.266 139.115L322.267 139.114ZM322.424 134.743C321.725 132.864 320.932 131.022 320.049 129.222C320.932 127.422 321.725 125.58 322.424 123.701C328.78 124.958 332.693 127.168 332.693 129.222C332.693 131.277 328.78 133.485 322.424 134.743Z" fill="#6615BF"/>
<path d="M314.462 129.222C314.463 130.144 314.099 131.028 313.452 131.686C312.971 132.171 312.356 132.502 311.686 132.638C311.016 132.773 310.322 132.704 309.692 132.44C309.273 132.265 308.893 132.008 308.573 131.686C308.253 131.361 307.998 130.978 307.826 130.556C307.564 129.919 307.496 129.218 307.63 128.542C307.763 127.868 308.091 127.248 308.574 126.759C309.055 126.274 309.669 125.942 310.34 125.806C311.009 125.671 311.704 125.74 312.333 126.004C312.752 126.18 313.133 126.436 313.452 126.759C313.773 127.083 314.027 127.467 314.2 127.889C314.374 128.312 314.463 128.765 314.462 129.222Z" fill="#6615BF"/>
<path d="M381.952 139.44C381.952 142.16 380.656 144.496 378.064 146.448C375.472 148.4 372.512 149.376 369.184 149.376C365.856 149.376 363.168 148.56 361.12 146.928C359.104 145.264 358.096 143.552 358.096 141.792C358.096 140.032 358.592 139.152 359.584 139.152C360.352 139.152 361.152 139.536 361.984 140.304C362.816 141.072 363.744 141.84 364.768 142.608C365.824 143.376 367.008 143.76 368.32 143.76C369.632 143.76 371.12 143.216 372.784 142.128C374.448 141.04 375.28 140.128 375.28 139.392C375.28 138.656 374.368 137.424 372.544 135.696C370.752 133.968 368.944 132.192 367.12 130.368C365.328 128.512 364.432 127.088 364.432 126.096C364.432 125.072 364.608 123.968 364.96 122.784C365.344 121.6 365.808 120.784 366.352 120.336C368.08 118.64 370.304 117.184 373.024 115.968C375.776 114.72 378.192 114.096 380.272 114.096C381.488 114.096 382.496 114.624 383.296 115.68C384.096 116.704 384.496 117.776 384.496 118.896C384.496 119.344 384.128 119.712 383.392 120C382.688 120.256 381.648 120.528 380.272 120.816C378.928 121.104 377.552 121.52 376.144 122.064C372.88 123.28 371.248 124.304 371.248 125.136C371.248 125.52 371.808 126.224 372.928 127.248C374.048 128.24 375.264 129.296 376.576 130.416C377.92 131.504 379.152 132.896 380.272 134.592C381.392 136.256 381.952 137.872 381.952 139.44ZM391.396 150.24C390.372 150.24 389.22 149.616 387.94 148.368C386.692 147.12 386.068 146.048 386.068 145.152C386.068 144.224 386.468 143.312 387.268 142.416C388.068 141.488 388.868 141.024 389.668 141.024C390.5 141.024 391.428 141.92 392.452 143.712C393.476 145.504 393.988 146.864 393.988 147.792C393.988 148.272 393.684 148.8 393.076 149.376C392.5 149.952 391.94 150.24 391.396 150.24ZM401.539 149.424C400.803 149.424 399.875 148.832 398.755 147.648C397.667 146.464 397.123 145.52 397.123 144.816C397.123 144.624 397.651 142.72 398.707 139.104C399.795 135.488 400.867 131.136 401.923 126.048C403.011 120.96 403.555 116.512 403.555 112.704C403.555 111.712 404.003 111.216 404.899 111.216C405.667 111.216 406.675 111.92 407.923 113.328C409.203 114.704 409.843 116 409.843 117.216C409.843 118.976 409.203 122.304 407.923 127.2C406.675 132.096 405.427 135.952 404.179 138.768C404.595 138.224 405.155 137.504 405.859 136.608C406.595 135.68 407.187 134.928 407.635 134.352C408.083 133.776 408.627 133.072 409.267 132.24C409.939 131.408 410.499 130.736 410.947 130.224C411.395 129.68 411.891 129.088 412.435 128.448C412.979 127.776 413.443 127.248 413.827 126.864C414.243 126.448 414.659 126.064 415.075 125.712C415.843 125.008 416.435 124.656 416.851 124.656C417.651 124.656 418.531 125.2 419.491 126.288C420.451 127.344 420.931 128.272 420.931 129.072C420.931 129.392 420.243 130.128 418.867 131.28C417.523 132.432 416.163 133.712 414.787 135.12C413.443 136.528 412.771 137.792 412.771 138.912C412.771 140 413.091 141.072 413.731 142.128C414.403 143.152 415.123 143.936 415.891 144.48C416.659 145.024 417.363 145.584 418.003 146.16C418.675 146.704 419.011 147.168 419.011 147.552C419.011 148.8 418.163 149.424 416.467 149.424C414.451 149.424 411.779 147.728 408.451 144.336L407.299 143.184C404.419 147.344 402.499 149.424 401.539 149.424Z" fill="#6615BF"/>
</svg>
