  <svg
          fill="#8a4ca8"
          viewBox="7.214 3.885 305.772 87.68"
          xmlns="http://www.w3.org/2000/svg"
          width="120"
        >
          <path
            d="M116.952 50.44C116.952 53.16 115.656 55.496 113.064 57.448C110.472 59.4 107.512 60.376 104.184 60.376C100.856 60.376 98.168 59.56 96.12 57.928C94.104 56.264 93.096 54.552 93.096 52.792C93.096 51.032 93.592 50.152 94.584 50.152C95.352 50.152 96.152 50.536 96.984 51.304C97.816 52.072 98.744 52.84 99.768 53.608C100.824 54.376 102.008 54.76 103.32 54.76C104.632 54.76 106.12 54.216 107.784 53.128C109.448 52.04 110.28 51.128 110.28 50.392C110.28 49.656 109.368 48.424 107.544 46.696C105.752 44.968 103.944 43.192 102.12 41.368C100.328 39.512 99.432 38.088 99.432 37.096C99.432 36.072 99.608 34.968 99.96 33.784C100.344 32.6 100.808 31.784 101.352 31.336C103.08 29.64 105.304 28.184 108.024 26.968C110.776 25.72 113.192 25.096 115.272 25.096C116.488 25.096 117.496 25.624 118.296 26.68C119.096 27.704 119.496 28.776 119.496 29.896C119.496 30.344 119.128 30.712 118.392 31C117.688 31.256 116.648 31.528 115.272 31.816C113.928 32.104 112.552 32.52 111.144 33.064C107.88 34.28 106.248 35.304 106.248 36.136C106.248 36.52 106.808 37.224 107.928 38.248C109.048 39.24 110.264 40.296 111.576 41.416C112.92 42.504 114.152 43.896 115.272 45.592C116.392 47.256 116.952 48.872 116.952 50.44ZM141.084 46.792C141.66 47.304 141.948 47.768 141.948 48.184C141.948 48.6 141.756 49.464 141.372 50.776C140.988 52.088 140.732 53.112 140.604 53.848C140.476 54.552 140.364 55.112 140.268 55.528C140.204 55.944 140.156 56.28 140.124 56.536C140.092 56.76 140.028 57.048 139.932 57.4C139.868 57.752 139.804 58.04 139.74 58.264C139.708 58.456 139.644 58.696 139.548 58.984C139.484 59.24 139.404 59.448 139.308 59.608C139.212 59.736 139.1 59.88 138.972 60.04C138.78 60.296 138.46 60.424 138.012 60.424C137.564 60.424 137.004 59.976 136.332 59.08C135.692 58.184 135.212 57.096 134.892 55.816C131.884 58.888 129.356 60.424 127.308 60.424C125.932 60.424 124.444 59.672 122.844 58.168C121.244 56.632 120.444 55.112 120.444 53.608C120.444 52.072 121.132 49.896 122.508 47.08C123.884 44.264 125.756 41.656 128.124 39.256C130.524 36.856 132.892 35.656 135.228 35.656C136.572 35.656 138.124 36.44 139.884 38.008C141.644 39.576 142.524 41.016 142.524 42.328C142.524 43.608 142.044 45.096 141.084 46.792ZM127.116 54.376C128.396 54.376 130.092 53.512 132.204 51.784C134.348 50.024 135.676 47.816 136.188 45.16C136.22 44.776 136.492 44.552 137.004 44.488C136.908 42.664 136.604 41.752 136.092 41.752C134.812 41.752 133.372 42.584 131.772 44.248C130.204 45.912 128.908 47.688 127.884 49.576C126.892 51.464 126.396 52.856 126.396 53.752C126.396 54.008 126.428 54.184 126.492 54.28C126.588 54.344 126.796 54.376 127.116 54.376ZM157.585 41.368C157.329 42.232 156.945 43.448 156.433 45.016C155.953 46.552 155.345 48.488 154.609 50.824C153.905 53.16 153.553 54.408 153.553 54.568C153.553 54.696 153.809 54.76 154.321 54.76C154.865 54.76 156.129 54.408 158.113 53.704C160.097 52.968 161.265 52.6 161.617 52.6C162.417 52.6 162.817 53.144 162.817 54.232C162.817 55.32 161.745 56.632 159.601 58.168C157.457 59.672 155.217 60.424 152.881 60.424C151.857 60.424 150.641 59.864 149.233 58.744C147.825 57.624 147.121 56.488 147.121 55.336C147.121 54.376 147.601 52.36 148.561 49.288C149.553 46.184 150.225 44.056 150.577 42.904C149.329 43.256 148.385 43.432 147.745 43.432C147.105 43.432 146.433 43 145.729 42.136C145.025 41.24 144.673 40.392 144.673 39.592C144.673 38.568 147.153 37.704 152.113 37C152.721 34.024 153.025 31.448 153.025 29.272C153.025 28.312 153.505 27.832 154.465 27.832C155.297 27.832 156.353 28.344 157.633 29.368C158.945 30.36 159.601 31.352 159.601 32.344C159.601 33.304 159.393 34.664 158.977 36.424C160.513 36.36 161.681 36.328 162.481 36.328C164.881 36.328 166.081 36.872 166.081 37.96C166.081 38.664 165.377 39.272 163.969 39.784C162.593 40.264 160.465 40.792 157.585 41.368ZM171.513 29.656C171.513 28.824 171.881 27.976 172.617 27.112C173.385 26.216 174.121 25.768 174.825 25.768C175.561 25.768 176.425 26.632 177.417 28.36C178.409 30.088 178.905 31.352 178.905 32.152C178.905 32.92 178.649 33.512 178.137 33.928C177.625 34.344 177.097 34.552 176.553 34.552C175.625 34.552 174.553 33.944 173.337 32.728C172.121 31.512 171.513 30.488 171.513 29.656ZM172.233 35.656C173.353 35.656 174.345 36.296 175.209 37.576C176.105 38.856 176.553 40.088 176.553 41.272C176.553 41.88 175.993 44.072 174.873 47.848C173.785 51.592 172.697 55.144 171.609 58.504C171.225 59.752 170.441 60.376 169.257 60.376C168.553 60.376 167.929 60.12 167.385 59.608C166.873 59.064 166.617 58.376 166.617 57.544C166.617 56.68 167.017 54.568 167.817 51.208C168.649 47.816 169.273 44.936 169.689 42.568C170.137 40.168 170.537 38.424 170.889 37.336C171.273 36.216 171.721 35.656 172.233 35.656ZM194.59 35.704C195.806 35.704 197.006 36.424 198.19 37.864C199.374 39.304 199.966 40.6 199.966 41.752C199.966 42.52 199.63 42.904 198.958 42.904C198.574 42.904 198.014 42.76 197.278 42.472C196.542 42.152 195.79 41.992 195.022 41.992C194.286 41.992 193.182 42.248 191.71 42.76C190.27 43.272 189.55 43.944 189.55 44.776C189.55 45.096 189.982 45.56 190.846 46.168C191.71 46.776 192.654 47.4 193.678 48.04C194.702 48.68 195.646 49.576 196.51 50.728C197.374 51.848 197.806 53.08 197.806 54.424C197.806 55.736 196.83 57.064 194.878 58.408C192.958 59.752 190.686 60.424 188.062 60.424C185.47 60.424 183.246 59.832 181.39 58.648C179.534 57.464 178.606 56.248 178.606 55C178.606 53.752 179.118 53.128 180.142 53.128C180.558 53.128 181.054 53.288 181.63 53.608C183.23 54.536 185.214 55 187.582 55C189.982 55 191.182 54.68 191.182 54.04C191.182 53.4 190.718 52.696 189.79 51.928C188.894 51.128 187.902 50.392 186.814 49.72C185.758 49.048 184.766 48.232 183.838 47.272C182.942 46.28 182.494 45.32 182.494 44.392C182.494 42.664 184.062 40.792 187.198 38.776C190.334 36.728 192.798 35.704 194.59 35.704ZM207.684 24.232C207.684 22.888 208.212 22.216 209.268 22.216C210.132 22.216 211.124 22.936 212.244 24.376C213.364 25.816 213.924 27.048 213.924 28.072C213.924 29.096 213.716 30.536 213.3 32.392C212.884 34.248 212.452 35.944 212.004 37.48C211.588 39.016 210.948 41.208 210.084 44.056C209.22 46.872 208.628 48.84 208.308 49.96C210.388 45.736 212.58 42.296 214.884 39.64C217.22 36.984 219.172 35.656 220.74 35.656C221.732 35.656 222.868 36.536 224.148 38.296C225.428 40.024 226.068 41.592 226.068 43C226.068 44.376 225.812 46.392 225.3 49.048C224.788 51.704 223.892 54.264 222.612 56.728C221.332 59.192 220.02 60.424 218.676 60.424C217.62 60.424 217.092 59.672 217.092 58.168C217.092 57.08 217.412 55.304 218.052 52.84C218.98 49.16 219.444 46.92 219.444 46.12C219.444 45.32 219.316 44.92 219.06 44.92C217.204 44.92 214.484 48.008 210.9 54.184C209.684 56.296 208.66 57.864 207.828 58.888C207.028 59.912 206.26 60.424 205.524 60.424C204.788 60.424 203.892 59.832 202.836 58.648C201.812 57.464 201.3 56.552 201.3 55.912C201.3 55.24 201.428 54.264 201.684 52.984C201.972 51.704 202.388 49.88 202.932 47.512C203.508 45.144 204.436 40.856 205.716 34.648C207.028 28.408 207.684 24.936 207.684 24.232Z"
            fill="#8a4ca8"
          />
        </svg>